<mxfile host="Electron" modified="2023-06-25T03:15:32.331Z" agent="Mozilla/5.0 (Windows NT 10.0; Win64; x64) AppleWebKit/537.36 (KHTML, like Gecko) draw.io/21.5.0 Chrome/112.0.5615.204 Electron/24.5.1 Safari/537.36" etag="cN_TqzDsXqMysLLJQBpz" version="21.5.0" type="device">
  <diagram id="C5RBs43oDa-KdzZeNtuy" name="Page-1">
    <mxGraphModel dx="5027" dy="1023" grid="1" gridSize="10" guides="1" tooltips="1" connect="1" arrows="1" fold="1" page="1" pageScale="1" pageWidth="3300" pageHeight="4681" background="none" math="0" shadow="0">
      <root>
        <mxCell id="WIyWlLk6GJQsqaUBKTNV-0" />
        <mxCell id="WIyWlLk6GJQsqaUBKTNV-1" parent="WIyWlLk6GJQsqaUBKTNV-0" />
        <mxCell id="A3IS6B0aCByR7GbL4Sqh-248" value="User Click on Product" style="edgeStyle=orthogonalEdgeStyle;rounded=0;orthogonalLoop=1;jettySize=auto;html=1;exitX=0.5;exitY=1;exitDx=0;exitDy=0;" edge="1" parent="WIyWlLk6GJQsqaUBKTNV-1" source="A3IS6B0aCByR7GbL4Sqh-35" target="A3IS6B0aCByR7GbL4Sqh-137">
          <mxGeometry relative="1" as="geometry" />
        </mxCell>
        <mxCell id="A3IS6B0aCByR7GbL4Sqh-307" value="User Click Log In" style="edgeStyle=orthogonalEdgeStyle;rounded=0;orthogonalLoop=1;jettySize=auto;html=1;" edge="1" parent="WIyWlLk6GJQsqaUBKTNV-1" source="A3IS6B0aCByR7GbL4Sqh-2" target="A3IS6B0aCByR7GbL4Sqh-251">
          <mxGeometry relative="1" as="geometry" />
        </mxCell>
        <mxCell id="A3IS6B0aCByR7GbL4Sqh-373" value="User Search for Product" style="edgeStyle=orthogonalEdgeStyle;rounded=0;orthogonalLoop=1;jettySize=auto;html=1;exitX=0.5;exitY=1;exitDx=0;exitDy=0;" edge="1" parent="WIyWlLk6GJQsqaUBKTNV-1" source="A3IS6B0aCByR7GbL4Sqh-35" target="A3IS6B0aCByR7GbL4Sqh-316">
          <mxGeometry relative="1" as="geometry" />
        </mxCell>
        <mxCell id="A3IS6B0aCByR7GbL4Sqh-2" value="" style="strokeWidth=1;shadow=0;dashed=0;align=center;html=1;shape=mxgraph.mockup.containers.browserWindow;rSize=0;strokeColor=#666666;strokeColor2=#008cff;strokeColor3=#c4c4c4;mainText=,;recursiveResize=0;" vertex="1" parent="WIyWlLk6GJQsqaUBKTNV-1">
          <mxGeometry width="610" height="690" as="geometry" />
        </mxCell>
        <mxCell id="A3IS6B0aCByR7GbL4Sqh-3" value="Page 1" style="strokeWidth=1;shadow=0;dashed=0;align=center;html=1;shape=mxgraph.mockup.containers.anchor;fontSize=17;fontColor=#666666;align=left;whiteSpace=wrap;" vertex="1" parent="A3IS6B0aCByR7GbL4Sqh-2">
          <mxGeometry x="60" y="12" width="110" height="26" as="geometry" />
        </mxCell>
        <mxCell id="A3IS6B0aCByR7GbL4Sqh-4" value="https://www.draw.io" style="strokeWidth=1;shadow=0;dashed=0;align=center;html=1;shape=mxgraph.mockup.containers.anchor;rSize=0;fontSize=17;fontColor=#666666;align=left;" vertex="1" parent="A3IS6B0aCByR7GbL4Sqh-2">
          <mxGeometry x="130" y="60" width="250" height="26" as="geometry" />
        </mxCell>
        <mxCell id="A3IS6B0aCByR7GbL4Sqh-5" value="" style="rounded=0;whiteSpace=wrap;html=1;fillColor=#647687;fontColor=#ffffff;strokeColor=#314354;" vertex="1" parent="A3IS6B0aCByR7GbL4Sqh-2">
          <mxGeometry y="110" width="610" height="70" as="geometry" />
        </mxCell>
        <mxCell id="A3IS6B0aCByR7GbL4Sqh-6" style="edgeStyle=orthogonalEdgeStyle;rounded=0;orthogonalLoop=1;jettySize=auto;html=1;exitX=0.5;exitY=1;exitDx=0;exitDy=0;" edge="1" parent="A3IS6B0aCByR7GbL4Sqh-2" source="A3IS6B0aCByR7GbL4Sqh-5" target="A3IS6B0aCByR7GbL4Sqh-5">
          <mxGeometry relative="1" as="geometry" />
        </mxCell>
        <mxCell id="A3IS6B0aCByR7GbL4Sqh-7" value="Search Box" style="rounded=0;whiteSpace=wrap;html=1;" vertex="1" parent="A3IS6B0aCByR7GbL4Sqh-2">
          <mxGeometry x="130" y="145" width="240" height="25" as="geometry" />
        </mxCell>
        <mxCell id="A3IS6B0aCByR7GbL4Sqh-15" value="Advance" style="rounded=0;whiteSpace=wrap;html=1;" vertex="1" parent="A3IS6B0aCByR7GbL4Sqh-2">
          <mxGeometry x="439" y="145" width="60" height="25" as="geometry" />
        </mxCell>
        <mxCell id="A3IS6B0aCByR7GbL4Sqh-17" value="Search" style="rounded=0;whiteSpace=wrap;html=1;" vertex="1" parent="A3IS6B0aCByR7GbL4Sqh-2">
          <mxGeometry x="380" y="145" width="50" height="25" as="geometry" />
        </mxCell>
        <mxCell id="A3IS6B0aCByR7GbL4Sqh-18" value="" style="verticalLabelPosition=bottom;shadow=0;dashed=0;align=center;html=1;verticalAlign=top;strokeWidth=1;shape=mxgraph.mockup.graphics.simpleIcon;strokeColor=#999999;" vertex="1" parent="A3IS6B0aCByR7GbL4Sqh-2">
          <mxGeometry x="30" y="120" width="50" height="50" as="geometry" />
        </mxCell>
        <mxCell id="A3IS6B0aCByR7GbL4Sqh-21" value="Logo" style="text;html=1;strokeColor=none;fillColor=none;align=center;verticalAlign=middle;whiteSpace=wrap;rounded=0;" vertex="1" parent="A3IS6B0aCByR7GbL4Sqh-2">
          <mxGeometry x="25" y="127.5" width="60" height="30" as="geometry" />
        </mxCell>
        <mxCell id="A3IS6B0aCByR7GbL4Sqh-22" value="Log In" style="rounded=0;whiteSpace=wrap;html=1;" vertex="1" parent="A3IS6B0aCByR7GbL4Sqh-2">
          <mxGeometry x="554" y="116" width="48" height="20" as="geometry" />
        </mxCell>
        <mxCell id="A3IS6B0aCByR7GbL4Sqh-23" value="" style="verticalLabelPosition=bottom;shadow=0;dashed=0;align=center;html=1;verticalAlign=top;strokeWidth=1;shape=mxgraph.mockup.misc.shoppingCart;" vertex="1" parent="A3IS6B0aCByR7GbL4Sqh-2">
          <mxGeometry x="510" y="147" width="20" height="20" as="geometry" />
        </mxCell>
        <mxCell id="A3IS6B0aCByR7GbL4Sqh-26" value="" style="verticalLabelPosition=bottom;shadow=0;dashed=0;align=center;html=1;verticalAlign=top;strokeWidth=1;shape=mxgraph.mockup.graphics.simpleIcon;strokeColor=#999999;fillColor=#ffffff;" vertex="1" parent="A3IS6B0aCByR7GbL4Sqh-2">
          <mxGeometry x="80" y="370" width="50" height="50" as="geometry" />
        </mxCell>
        <mxCell id="A3IS6B0aCByR7GbL4Sqh-27" value="" style="verticalLabelPosition=bottom;shadow=0;dashed=0;align=center;html=1;verticalAlign=top;strokeWidth=1;shape=mxgraph.mockup.graphics.simpleIcon;strokeColor=#999999;fillColor=#ffffff;" vertex="1" parent="A3IS6B0aCByR7GbL4Sqh-2">
          <mxGeometry x="155" y="370" width="50" height="50" as="geometry" />
        </mxCell>
        <mxCell id="A3IS6B0aCByR7GbL4Sqh-28" value="" style="verticalLabelPosition=bottom;shadow=0;dashed=0;align=center;html=1;verticalAlign=top;strokeWidth=1;shape=mxgraph.mockup.graphics.simpleIcon;strokeColor=#999999;fillColor=#ffffff;" vertex="1" parent="A3IS6B0aCByR7GbL4Sqh-2">
          <mxGeometry x="230" y="370" width="50" height="50" as="geometry" />
        </mxCell>
        <mxCell id="A3IS6B0aCByR7GbL4Sqh-29" value="" style="verticalLabelPosition=bottom;shadow=0;dashed=0;align=center;html=1;verticalAlign=top;strokeWidth=1;shape=mxgraph.mockup.graphics.simpleIcon;strokeColor=#999999;fillColor=#ffffff;" vertex="1" parent="A3IS6B0aCByR7GbL4Sqh-2">
          <mxGeometry x="80" y="445" width="50" height="50" as="geometry" />
        </mxCell>
        <mxCell id="A3IS6B0aCByR7GbL4Sqh-30" value="" style="verticalLabelPosition=bottom;shadow=0;dashed=0;align=center;html=1;verticalAlign=top;strokeWidth=1;shape=mxgraph.mockup.graphics.simpleIcon;strokeColor=#999999;fillColor=#ffffff;" vertex="1" parent="A3IS6B0aCByR7GbL4Sqh-2">
          <mxGeometry x="155" y="445" width="50" height="50" as="geometry" />
        </mxCell>
        <mxCell id="A3IS6B0aCByR7GbL4Sqh-31" value="" style="verticalLabelPosition=bottom;shadow=0;dashed=0;align=center;html=1;verticalAlign=top;strokeWidth=1;shape=mxgraph.mockup.graphics.simpleIcon;strokeColor=#999999;fillColor=#ffffff;" vertex="1" parent="A3IS6B0aCByR7GbL4Sqh-2">
          <mxGeometry x="230" y="445" width="50" height="50" as="geometry" />
        </mxCell>
        <mxCell id="A3IS6B0aCByR7GbL4Sqh-32" value="" style="verticalLabelPosition=bottom;shadow=0;dashed=0;align=center;html=1;verticalAlign=top;strokeWidth=1;shape=mxgraph.mockup.graphics.simpleIcon;strokeColor=#999999;fillColor=#ffffff;" vertex="1" parent="A3IS6B0aCByR7GbL4Sqh-2">
          <mxGeometry x="80" y="520" width="50" height="50" as="geometry" />
        </mxCell>
        <mxCell id="A3IS6B0aCByR7GbL4Sqh-33" value="" style="verticalLabelPosition=bottom;shadow=0;dashed=0;align=center;html=1;verticalAlign=top;strokeWidth=1;shape=mxgraph.mockup.graphics.simpleIcon;strokeColor=#999999;fillColor=#ffffff;" vertex="1" parent="A3IS6B0aCByR7GbL4Sqh-2">
          <mxGeometry x="155" y="520" width="50" height="50" as="geometry" />
        </mxCell>
        <mxCell id="A3IS6B0aCByR7GbL4Sqh-34" value="" style="verticalLabelPosition=bottom;shadow=0;dashed=0;align=center;html=1;verticalAlign=top;strokeWidth=1;shape=mxgraph.mockup.graphics.simpleIcon;strokeColor=#999999;fillColor=#ffffff;" vertex="1" parent="A3IS6B0aCByR7GbL4Sqh-2">
          <mxGeometry x="480" y="520" width="50" height="50" as="geometry" />
        </mxCell>
        <mxCell id="A3IS6B0aCByR7GbL4Sqh-35" value="" style="rounded=0;whiteSpace=wrap;html=1;fillColor=#647687;fontColor=#ffffff;strokeColor=#314354;" vertex="1" parent="A3IS6B0aCByR7GbL4Sqh-2">
          <mxGeometry y="590" width="610" height="100" as="geometry" />
        </mxCell>
        <mxCell id="A3IS6B0aCByR7GbL4Sqh-36" value="Link 1&lt;br&gt;Link 2&lt;br&gt;Link 3&lt;br&gt;Link 4&lt;br&gt;Link 5" style="text;strokeColor=none;fillColor=none;align=left;verticalAlign=middle;spacingLeft=4;spacingRight=4;overflow=hidden;points=[[0,0.5],[1,0.5]];portConstraint=eastwest;rotatable=0;whiteSpace=wrap;html=1;" vertex="1" parent="A3IS6B0aCByR7GbL4Sqh-2">
          <mxGeometry x="25" y="600" width="80" height="80" as="geometry" />
        </mxCell>
        <mxCell id="A3IS6B0aCByR7GbL4Sqh-37" value="Link 1&lt;br&gt;Link 2&lt;br&gt;Link 3&lt;br&gt;Link 4&lt;br&gt;Link 5" style="text;strokeColor=none;fillColor=none;align=left;verticalAlign=middle;spacingLeft=4;spacingRight=4;overflow=hidden;points=[[0,0.5],[1,0.5]];portConstraint=eastwest;rotatable=0;whiteSpace=wrap;html=1;" vertex="1" parent="A3IS6B0aCByR7GbL4Sqh-2">
          <mxGeometry x="110" y="600" width="80" height="80" as="geometry" />
        </mxCell>
        <mxCell id="A3IS6B0aCByR7GbL4Sqh-38" value="Link 1&lt;br&gt;Link 2&lt;br&gt;Link 3&lt;br&gt;Link 4&lt;br&gt;Link 5" style="text;strokeColor=none;fillColor=none;align=left;verticalAlign=middle;spacingLeft=4;spacingRight=4;overflow=hidden;points=[[0,0.5],[1,0.5]];portConstraint=eastwest;rotatable=0;whiteSpace=wrap;html=1;" vertex="1" parent="A3IS6B0aCByR7GbL4Sqh-2">
          <mxGeometry x="190" y="600" width="80" height="80" as="geometry" />
        </mxCell>
        <mxCell id="A3IS6B0aCByR7GbL4Sqh-25" value="Chat" style="rounded=0;whiteSpace=wrap;html=1;" vertex="1" parent="A3IS6B0aCByR7GbL4Sqh-2">
          <mxGeometry x="520" y="660" width="90" height="30" as="geometry" />
        </mxCell>
        <mxCell id="A3IS6B0aCByR7GbL4Sqh-41" value="" style="verticalLabelPosition=bottom;shadow=0;dashed=0;align=center;html=1;verticalAlign=top;strokeWidth=1;shape=mxgraph.mockup.graphics.simpleIcon;strokeColor=#999999;fillColor=#ffffff;" vertex="1" parent="A3IS6B0aCByR7GbL4Sqh-2">
          <mxGeometry x="405" y="370" width="50" height="50" as="geometry" />
        </mxCell>
        <mxCell id="A3IS6B0aCByR7GbL4Sqh-42" value="" style="verticalLabelPosition=bottom;shadow=0;dashed=0;align=center;html=1;verticalAlign=top;strokeWidth=1;shape=mxgraph.mockup.graphics.simpleIcon;strokeColor=#999999;fillColor=#ffffff;" vertex="1" parent="A3IS6B0aCByR7GbL4Sqh-2">
          <mxGeometry x="330" y="370" width="50" height="50" as="geometry" />
        </mxCell>
        <mxCell id="A3IS6B0aCByR7GbL4Sqh-43" value="" style="verticalLabelPosition=bottom;shadow=0;dashed=0;align=center;html=1;verticalAlign=top;strokeWidth=1;shape=mxgraph.mockup.graphics.simpleIcon;strokeColor=#999999;fillColor=#ffffff;" vertex="1" parent="A3IS6B0aCByR7GbL4Sqh-2">
          <mxGeometry x="330" y="445" width="50" height="50" as="geometry" />
        </mxCell>
        <mxCell id="A3IS6B0aCByR7GbL4Sqh-44" value="" style="verticalLabelPosition=bottom;shadow=0;dashed=0;align=center;html=1;verticalAlign=top;strokeWidth=1;shape=mxgraph.mockup.graphics.simpleIcon;strokeColor=#999999;fillColor=#ffffff;" vertex="1" parent="A3IS6B0aCByR7GbL4Sqh-2">
          <mxGeometry x="330" y="520" width="50" height="50" as="geometry" />
        </mxCell>
        <mxCell id="A3IS6B0aCByR7GbL4Sqh-45" value="" style="verticalLabelPosition=bottom;shadow=0;dashed=0;align=center;html=1;verticalAlign=top;strokeWidth=1;shape=mxgraph.mockup.graphics.simpleIcon;strokeColor=#999999;fillColor=#ffffff;" vertex="1" parent="A3IS6B0aCByR7GbL4Sqh-2">
          <mxGeometry x="405" y="520" width="50" height="50" as="geometry" />
        </mxCell>
        <mxCell id="A3IS6B0aCByR7GbL4Sqh-46" value="" style="verticalLabelPosition=bottom;shadow=0;dashed=0;align=center;html=1;verticalAlign=top;strokeWidth=1;shape=mxgraph.mockup.graphics.simpleIcon;strokeColor=#999999;fillColor=#ffffff;" vertex="1" parent="A3IS6B0aCByR7GbL4Sqh-2">
          <mxGeometry x="405" y="445" width="50" height="50" as="geometry" />
        </mxCell>
        <mxCell id="A3IS6B0aCByR7GbL4Sqh-47" value="" style="verticalLabelPosition=bottom;shadow=0;dashed=0;align=center;html=1;verticalAlign=top;strokeWidth=1;shape=mxgraph.mockup.graphics.simpleIcon;strokeColor=#999999;fillColor=#ffffff;" vertex="1" parent="A3IS6B0aCByR7GbL4Sqh-2">
          <mxGeometry x="480" y="445" width="50" height="50" as="geometry" />
        </mxCell>
        <mxCell id="A3IS6B0aCByR7GbL4Sqh-48" value="" style="verticalLabelPosition=bottom;shadow=0;dashed=0;align=center;html=1;verticalAlign=top;strokeWidth=1;shape=mxgraph.mockup.graphics.simpleIcon;strokeColor=#999999;fillColor=#ffffff;" vertex="1" parent="A3IS6B0aCByR7GbL4Sqh-2">
          <mxGeometry x="480" y="370" width="50" height="50" as="geometry" />
        </mxCell>
        <mxCell id="A3IS6B0aCByR7GbL4Sqh-49" value="" style="verticalLabelPosition=bottom;shadow=0;dashed=0;align=center;html=1;verticalAlign=top;strokeWidth=1;shape=mxgraph.mockup.graphics.simpleIcon;strokeColor=#999999;fillColor=#ffffff;" vertex="1" parent="A3IS6B0aCByR7GbL4Sqh-2">
          <mxGeometry x="230" y="520" width="50" height="50" as="geometry" />
        </mxCell>
        <mxCell id="A3IS6B0aCByR7GbL4Sqh-50" value="" style="verticalLabelPosition=bottom;shadow=0;dashed=0;align=center;html=1;verticalAlign=top;strokeWidth=1;shape=mxgraph.mockup.graphics.simpleIcon;strokeColor=#999999;fillColor=#ffffff;" vertex="1" parent="A3IS6B0aCByR7GbL4Sqh-2">
          <mxGeometry x="230" y="520" width="50" height="50" as="geometry" />
        </mxCell>
        <mxCell id="A3IS6B0aCByR7GbL4Sqh-51" value="" style="verticalLabelPosition=bottom;shadow=0;dashed=0;align=center;html=1;verticalAlign=top;strokeWidth=1;shape=mxgraph.mockup.graphics.simpleIcon;strokeColor=#999999;fillColor=#ffffff;" vertex="1" parent="A3IS6B0aCByR7GbL4Sqh-2">
          <mxGeometry x="155" y="445" width="50" height="50" as="geometry" />
        </mxCell>
        <mxCell id="A3IS6B0aCByR7GbL4Sqh-52" value="" style="verticalLabelPosition=bottom;shadow=0;dashed=0;align=center;html=1;verticalAlign=top;strokeWidth=1;shape=mxgraph.mockup.graphics.simpleIcon;strokeColor=#999999;fillColor=#ffffff;" vertex="1" parent="A3IS6B0aCByR7GbL4Sqh-2">
          <mxGeometry x="230" y="520" width="50" height="50" as="geometry" />
        </mxCell>
        <mxCell id="A3IS6B0aCByR7GbL4Sqh-53" value="" style="verticalLabelPosition=bottom;shadow=0;dashed=0;align=center;html=1;verticalAlign=top;strokeWidth=1;shape=mxgraph.mockup.graphics.simpleIcon;strokeColor=#999999;fillColor=#ffffff;" vertex="1" parent="A3IS6B0aCByR7GbL4Sqh-2">
          <mxGeometry x="155" y="445" width="50" height="50" as="geometry" />
        </mxCell>
        <mxCell id="A3IS6B0aCByR7GbL4Sqh-54" value="" style="verticalLabelPosition=bottom;shadow=0;dashed=0;align=center;html=1;verticalAlign=top;strokeWidth=1;shape=mxgraph.mockup.graphics.simpleIcon;strokeColor=#999999;fillColor=#ffffff;" vertex="1" parent="A3IS6B0aCByR7GbL4Sqh-2">
          <mxGeometry x="80" y="445" width="50" height="50" as="geometry" />
        </mxCell>
        <mxCell id="A3IS6B0aCByR7GbL4Sqh-55" value="" style="verticalLabelPosition=bottom;shadow=0;dashed=0;align=center;html=1;verticalAlign=top;strokeWidth=1;shape=mxgraph.mockup.graphics.simpleIcon;strokeColor=#999999;fillColor=#ffffff;" vertex="1" parent="A3IS6B0aCByR7GbL4Sqh-2">
          <mxGeometry x="80" y="370" width="50" height="50" as="geometry" />
        </mxCell>
        <mxCell id="A3IS6B0aCByR7GbL4Sqh-56" value="" style="verticalLabelPosition=bottom;shadow=0;dashed=0;align=center;html=1;verticalAlign=top;strokeWidth=1;shape=mxgraph.mockup.graphics.simpleIcon;strokeColor=#999999;fillColor=#ffffff;" vertex="1" parent="A3IS6B0aCByR7GbL4Sqh-2">
          <mxGeometry x="230" y="520" width="50" height="50" as="geometry" />
        </mxCell>
        <mxCell id="A3IS6B0aCByR7GbL4Sqh-57" value="" style="verticalLabelPosition=bottom;shadow=0;dashed=0;align=center;html=1;verticalAlign=top;strokeWidth=1;shape=mxgraph.mockup.graphics.simpleIcon;strokeColor=#999999;fillColor=#ffffff;" vertex="1" parent="A3IS6B0aCByR7GbL4Sqh-2">
          <mxGeometry x="155" y="445" width="50" height="50" as="geometry" />
        </mxCell>
        <mxCell id="A3IS6B0aCByR7GbL4Sqh-58" value="" style="verticalLabelPosition=bottom;shadow=0;dashed=0;align=center;html=1;verticalAlign=top;strokeWidth=1;shape=mxgraph.mockup.graphics.simpleIcon;strokeColor=#999999;fillColor=#ffffff;" vertex="1" parent="A3IS6B0aCByR7GbL4Sqh-2">
          <mxGeometry x="80" y="445" width="50" height="50" as="geometry" />
        </mxCell>
        <mxCell id="A3IS6B0aCByR7GbL4Sqh-59" value="" style="verticalLabelPosition=bottom;shadow=0;dashed=0;align=center;html=1;verticalAlign=top;strokeWidth=1;shape=mxgraph.mockup.graphics.simpleIcon;strokeColor=#999999;fillColor=#ffffff;" vertex="1" parent="A3IS6B0aCByR7GbL4Sqh-2">
          <mxGeometry x="80" y="370" width="50" height="50" as="geometry" />
        </mxCell>
        <mxCell id="A3IS6B0aCByR7GbL4Sqh-60" value="" style="verticalLabelPosition=bottom;shadow=0;dashed=0;align=center;html=1;verticalAlign=top;strokeWidth=1;shape=mxgraph.mockup.graphics.simpleIcon;strokeColor=#999999;fillColor=#ffffff;" vertex="1" parent="A3IS6B0aCByR7GbL4Sqh-2">
          <mxGeometry x="230" y="370" width="50" height="50" as="geometry" />
        </mxCell>
        <mxCell id="A3IS6B0aCByR7GbL4Sqh-61" value="" style="verticalLabelPosition=bottom;shadow=0;dashed=0;align=center;html=1;verticalAlign=top;strokeWidth=1;shape=mxgraph.mockup.graphics.simpleIcon;strokeColor=#999999;fillColor=#ffffff;" vertex="1" parent="A3IS6B0aCByR7GbL4Sqh-2">
          <mxGeometry x="155" y="370" width="50" height="50" as="geometry" />
        </mxCell>
        <mxCell id="A3IS6B0aCByR7GbL4Sqh-62" value="" style="verticalLabelPosition=bottom;shadow=0;dashed=0;align=center;html=1;verticalAlign=top;strokeWidth=1;shape=mxgraph.mockup.graphics.simpleIcon;strokeColor=#999999;fillColor=#ffffff;" vertex="1" parent="A3IS6B0aCByR7GbL4Sqh-2">
          <mxGeometry x="230" y="445" width="50" height="50" as="geometry" />
        </mxCell>
        <mxCell id="A3IS6B0aCByR7GbL4Sqh-66" value="Random Recommendations" style="text;html=1;strokeColor=none;fillColor=none;align=center;verticalAlign=middle;whiteSpace=wrap;rounded=0;" vertex="1" parent="A3IS6B0aCByR7GbL4Sqh-2">
          <mxGeometry x="85" y="330" width="445" height="30" as="geometry" />
        </mxCell>
        <mxCell id="A3IS6B0aCByR7GbL4Sqh-67" value="" style="verticalLabelPosition=bottom;shadow=0;dashed=0;align=center;html=1;verticalAlign=top;strokeWidth=1;shape=mxgraph.mockup.graphics.simpleIcon;strokeColor=#999999;" vertex="1" parent="A3IS6B0aCByR7GbL4Sqh-2">
          <mxGeometry x="90" y="200" width="430" height="90" as="geometry" />
        </mxCell>
        <mxCell id="A3IS6B0aCByR7GbL4Sqh-68" value="Promotional Banners" style="text;html=1;strokeColor=none;fillColor=none;align=center;verticalAlign=middle;whiteSpace=wrap;rounded=0;" vertex="1" parent="A3IS6B0aCByR7GbL4Sqh-2">
          <mxGeometry x="275" y="210" width="60" height="30" as="geometry" />
        </mxCell>
        <mxCell id="A3IS6B0aCByR7GbL4Sqh-76" value="" style="ellipse;whiteSpace=wrap;html=1;aspect=fixed;" vertex="1" parent="A3IS6B0aCByR7GbL4Sqh-2">
          <mxGeometry x="329" y="300" width="10" height="10" as="geometry" />
        </mxCell>
        <mxCell id="A3IS6B0aCByR7GbL4Sqh-79" value="" style="ellipse;whiteSpace=wrap;html=1;aspect=fixed;" vertex="1" parent="A3IS6B0aCByR7GbL4Sqh-2">
          <mxGeometry x="286" y="300" width="10" height="10" as="geometry" />
        </mxCell>
        <mxCell id="A3IS6B0aCByR7GbL4Sqh-80" value="" style="ellipse;whiteSpace=wrap;html=1;aspect=fixed;" vertex="1" parent="A3IS6B0aCByR7GbL4Sqh-2">
          <mxGeometry x="265" y="300" width="10" height="10" as="geometry" />
        </mxCell>
        <mxCell id="A3IS6B0aCByR7GbL4Sqh-81" value="" style="ellipse;whiteSpace=wrap;html=1;aspect=fixed;" vertex="1" parent="A3IS6B0aCByR7GbL4Sqh-2">
          <mxGeometry x="308" y="300" width="10" height="10" as="geometry" />
        </mxCell>
        <mxCell id="A3IS6B0aCByR7GbL4Sqh-249" value="&lt;font style=&quot;font-size: 24px;&quot;&gt;Main&lt;/font&gt;" style="text;html=1;strokeColor=none;fillColor=none;align=center;verticalAlign=middle;whiteSpace=wrap;rounded=0;" vertex="1" parent="A3IS6B0aCByR7GbL4Sqh-2">
          <mxGeometry x="48" y="12" width="95" height="30" as="geometry" />
        </mxCell>
        <mxCell id="A3IS6B0aCByR7GbL4Sqh-71" value="" style="ellipse;whiteSpace=wrap;html=1;aspect=fixed;" vertex="1" parent="WIyWlLk6GJQsqaUBKTNV-1">
          <mxGeometry x="350" y="300" width="10" height="10" as="geometry" />
        </mxCell>
        <mxCell id="A3IS6B0aCByR7GbL4Sqh-678" style="edgeStyle=orthogonalEdgeStyle;rounded=0;orthogonalLoop=1;jettySize=auto;html=1;" edge="1" parent="WIyWlLk6GJQsqaUBKTNV-1">
          <mxGeometry relative="1" as="geometry">
            <mxPoint x="1700" y="1600" as="targetPoint" />
            <mxPoint x="1450" y="1540" as="sourcePoint" />
          </mxGeometry>
        </mxCell>
        <mxCell id="A3IS6B0aCByR7GbL4Sqh-137" value="" style="strokeWidth=1;shadow=0;dashed=0;align=center;html=1;shape=mxgraph.mockup.containers.browserWindow;rSize=0;strokeColor=#666666;strokeColor2=#008cff;strokeColor3=#c4c4c4;mainText=,;recursiveResize=0;" vertex="1" parent="WIyWlLk6GJQsqaUBKTNV-1">
          <mxGeometry x="827" y="840" width="613" height="1180" as="geometry" />
        </mxCell>
        <mxCell id="A3IS6B0aCByR7GbL4Sqh-138" value="Page 1" style="strokeWidth=1;shadow=0;dashed=0;align=center;html=1;shape=mxgraph.mockup.containers.anchor;fontSize=17;fontColor=#666666;align=left;whiteSpace=wrap;" vertex="1" parent="A3IS6B0aCByR7GbL4Sqh-137">
          <mxGeometry x="60" y="12" width="110" height="26" as="geometry" />
        </mxCell>
        <mxCell id="A3IS6B0aCByR7GbL4Sqh-139" value="https://www.draw.io" style="strokeWidth=1;shadow=0;dashed=0;align=center;html=1;shape=mxgraph.mockup.containers.anchor;rSize=0;fontSize=17;fontColor=#666666;align=left;" vertex="1" parent="A3IS6B0aCByR7GbL4Sqh-137">
          <mxGeometry x="130" y="60" width="250" height="26" as="geometry" />
        </mxCell>
        <mxCell id="A3IS6B0aCByR7GbL4Sqh-140" value="" style="rounded=0;whiteSpace=wrap;html=1;fillColor=#647687;fontColor=#ffffff;strokeColor=#314354;" vertex="1" parent="A3IS6B0aCByR7GbL4Sqh-137">
          <mxGeometry y="110" width="610" height="70" as="geometry" />
        </mxCell>
        <mxCell id="A3IS6B0aCByR7GbL4Sqh-141" style="edgeStyle=orthogonalEdgeStyle;rounded=0;orthogonalLoop=1;jettySize=auto;html=1;exitX=0.5;exitY=1;exitDx=0;exitDy=0;" edge="1" parent="A3IS6B0aCByR7GbL4Sqh-137" source="A3IS6B0aCByR7GbL4Sqh-140" target="A3IS6B0aCByR7GbL4Sqh-140">
          <mxGeometry relative="1" as="geometry" />
        </mxCell>
        <mxCell id="A3IS6B0aCByR7GbL4Sqh-142" value="Search Box" style="rounded=0;whiteSpace=wrap;html=1;" vertex="1" parent="A3IS6B0aCByR7GbL4Sqh-137">
          <mxGeometry x="130" y="145" width="240" height="25" as="geometry" />
        </mxCell>
        <mxCell id="A3IS6B0aCByR7GbL4Sqh-143" value="Advance" style="rounded=0;whiteSpace=wrap;html=1;" vertex="1" parent="A3IS6B0aCByR7GbL4Sqh-137">
          <mxGeometry x="439" y="145" width="60" height="25" as="geometry" />
        </mxCell>
        <mxCell id="A3IS6B0aCByR7GbL4Sqh-144" value="Search" style="rounded=0;whiteSpace=wrap;html=1;" vertex="1" parent="A3IS6B0aCByR7GbL4Sqh-137">
          <mxGeometry x="380" y="145" width="50" height="25" as="geometry" />
        </mxCell>
        <mxCell id="A3IS6B0aCByR7GbL4Sqh-145" value="" style="verticalLabelPosition=bottom;shadow=0;dashed=0;align=center;html=1;verticalAlign=top;strokeWidth=1;shape=mxgraph.mockup.graphics.simpleIcon;strokeColor=#999999;" vertex="1" parent="A3IS6B0aCByR7GbL4Sqh-137">
          <mxGeometry x="30" y="120" width="50" height="50" as="geometry" />
        </mxCell>
        <mxCell id="A3IS6B0aCByR7GbL4Sqh-146" value="Logo" style="text;html=1;strokeColor=none;fillColor=none;align=center;verticalAlign=middle;whiteSpace=wrap;rounded=0;" vertex="1" parent="A3IS6B0aCByR7GbL4Sqh-137">
          <mxGeometry x="25" y="127.5" width="60" height="30" as="geometry" />
        </mxCell>
        <mxCell id="A3IS6B0aCByR7GbL4Sqh-147" value="Log In" style="rounded=0;whiteSpace=wrap;html=1;" vertex="1" parent="A3IS6B0aCByR7GbL4Sqh-137">
          <mxGeometry x="554" y="116" width="48" height="20" as="geometry" />
        </mxCell>
        <mxCell id="A3IS6B0aCByR7GbL4Sqh-148" value="" style="verticalLabelPosition=bottom;shadow=0;dashed=0;align=center;html=1;verticalAlign=top;strokeWidth=1;shape=mxgraph.mockup.misc.shoppingCart;" vertex="1" parent="A3IS6B0aCByR7GbL4Sqh-137">
          <mxGeometry x="510" y="147" width="20" height="20" as="geometry" />
        </mxCell>
        <mxCell id="A3IS6B0aCByR7GbL4Sqh-158" value="" style="rounded=0;whiteSpace=wrap;html=1;fillColor=#647687;fontColor=#ffffff;strokeColor=#314354;" vertex="1" parent="A3IS6B0aCByR7GbL4Sqh-137">
          <mxGeometry y="1080" width="610" height="100" as="geometry" />
        </mxCell>
        <mxCell id="A3IS6B0aCByR7GbL4Sqh-159" value="Link 1&lt;br&gt;Link 2&lt;br&gt;Link 3&lt;br&gt;Link 4&lt;br&gt;Link 5" style="text;strokeColor=none;fillColor=none;align=left;verticalAlign=middle;spacingLeft=4;spacingRight=4;overflow=hidden;points=[[0,0.5],[1,0.5]];portConstraint=eastwest;rotatable=0;whiteSpace=wrap;html=1;" vertex="1" parent="A3IS6B0aCByR7GbL4Sqh-137">
          <mxGeometry x="25" y="1090" width="80" height="80" as="geometry" />
        </mxCell>
        <mxCell id="A3IS6B0aCByR7GbL4Sqh-160" value="Link 1&lt;br&gt;Link 2&lt;br&gt;Link 3&lt;br&gt;Link 4&lt;br&gt;Link 5" style="text;strokeColor=none;fillColor=none;align=left;verticalAlign=middle;spacingLeft=4;spacingRight=4;overflow=hidden;points=[[0,0.5],[1,0.5]];portConstraint=eastwest;rotatable=0;whiteSpace=wrap;html=1;" vertex="1" parent="A3IS6B0aCByR7GbL4Sqh-137">
          <mxGeometry x="110" y="1090" width="80" height="80" as="geometry" />
        </mxCell>
        <mxCell id="A3IS6B0aCByR7GbL4Sqh-161" value="Link 1&lt;br&gt;Link 2&lt;br&gt;Link 3&lt;br&gt;Link 4&lt;br&gt;Link 5" style="text;strokeColor=none;fillColor=none;align=left;verticalAlign=middle;spacingLeft=4;spacingRight=4;overflow=hidden;points=[[0,0.5],[1,0.5]];portConstraint=eastwest;rotatable=0;whiteSpace=wrap;html=1;" vertex="1" parent="A3IS6B0aCByR7GbL4Sqh-137">
          <mxGeometry x="190" y="1090" width="80" height="80" as="geometry" />
        </mxCell>
        <mxCell id="A3IS6B0aCByR7GbL4Sqh-162" value="Chat" style="rounded=0;whiteSpace=wrap;html=1;" vertex="1" parent="A3IS6B0aCByR7GbL4Sqh-137">
          <mxGeometry x="520" y="1150" width="90" height="30" as="geometry" />
        </mxCell>
        <mxCell id="A3IS6B0aCByR7GbL4Sqh-250" value="&lt;font style=&quot;font-size: 24px;&quot;&gt;Product&lt;/font&gt;" style="text;html=1;strokeColor=none;fillColor=none;align=center;verticalAlign=middle;whiteSpace=wrap;rounded=0;" vertex="1" parent="A3IS6B0aCByR7GbL4Sqh-137">
          <mxGeometry x="57.5" y="12" width="95" height="30" as="geometry" />
        </mxCell>
        <mxCell id="A3IS6B0aCByR7GbL4Sqh-478" value="" style="verticalLabelPosition=bottom;shadow=0;dashed=0;align=center;html=1;verticalAlign=top;strokeWidth=1;shape=mxgraph.mockup.graphics.simpleIcon;strokeColor=#999999;" vertex="1" parent="A3IS6B0aCByR7GbL4Sqh-137">
          <mxGeometry x="51.5" y="220" width="238.5" height="190" as="geometry" />
        </mxCell>
        <mxCell id="A3IS6B0aCByR7GbL4Sqh-479" value="&lt;font style=&quot;font-size: 24px;&quot;&gt;Product Name Placeholder&lt;/font&gt;" style="text;html=1;strokeColor=none;fillColor=none;align=left;verticalAlign=middle;whiteSpace=wrap;rounded=0;" vertex="1" parent="A3IS6B0aCByR7GbL4Sqh-137">
          <mxGeometry x="313" y="230" width="277" height="60" as="geometry" />
        </mxCell>
        <mxCell id="A3IS6B0aCByR7GbL4Sqh-489" value="" style="verticalLabelPosition=bottom;shadow=0;dashed=0;align=center;html=1;verticalAlign=top;strokeWidth=1;shape=mxgraph.mockup.graphics.simpleIcon;strokeColor=#999999;fillColor=#ffffff;" vertex="1" parent="A3IS6B0aCByR7GbL4Sqh-137">
          <mxGeometry x="30" y="430" width="50" height="50" as="geometry" />
        </mxCell>
        <mxCell id="A3IS6B0aCByR7GbL4Sqh-490" value="" style="verticalLabelPosition=bottom;shadow=0;dashed=0;align=center;html=1;verticalAlign=top;strokeWidth=1;shape=mxgraph.mockup.graphics.simpleIcon;strokeColor=#999999;fillColor=#ffffff;" vertex="1" parent="A3IS6B0aCByR7GbL4Sqh-137">
          <mxGeometry x="105" y="430" width="50" height="50" as="geometry" />
        </mxCell>
        <mxCell id="A3IS6B0aCByR7GbL4Sqh-491" value="" style="verticalLabelPosition=bottom;shadow=0;dashed=0;align=center;html=1;verticalAlign=top;strokeWidth=1;shape=mxgraph.mockup.graphics.simpleIcon;strokeColor=#999999;fillColor=#ffffff;" vertex="1" parent="A3IS6B0aCByR7GbL4Sqh-137">
          <mxGeometry x="180" y="430" width="50" height="50" as="geometry" />
        </mxCell>
        <mxCell id="A3IS6B0aCByR7GbL4Sqh-500" value="&lt;ul&gt;&lt;li&gt;&lt;font style=&quot;font-size: 14px;&quot;&gt;Option 1&lt;/font&gt;&lt;/li&gt;&lt;li&gt;&lt;font size=&quot;3&quot;&gt;Option 2&lt;/font&gt;&lt;/li&gt;&lt;li&gt;&lt;font size=&quot;3&quot;&gt;Option 3&lt;br&gt;&lt;/font&gt;&lt;/li&gt;&lt;li&gt;&lt;font size=&quot;3&quot;&gt;Option&amp;nbsp;4&lt;/font&gt;&lt;/li&gt;&lt;/ul&gt;" style="text;strokeColor=none;fillColor=none;html=1;whiteSpace=wrap;verticalAlign=middle;overflow=hidden;" vertex="1" parent="A3IS6B0aCByR7GbL4Sqh-137">
          <mxGeometry x="318" y="340" width="267" height="100" as="geometry" />
        </mxCell>
        <mxCell id="A3IS6B0aCByR7GbL4Sqh-501" value="Rating Place Holder&amp;nbsp; &amp;nbsp;&amp;nbsp;&lt;span style=&quot;white-space: pre;&quot;&gt;&#x9;&lt;/span&gt;&lt;span style=&quot;white-space: pre;&quot;&gt;&#x9;&lt;/span&gt;&lt;span style=&quot;white-space: pre;&quot;&gt;&#x9;&lt;/span&gt;Price" style="text;html=1;strokeColor=none;fillColor=none;align=center;verticalAlign=middle;whiteSpace=wrap;rounded=0;" vertex="1" parent="A3IS6B0aCByR7GbL4Sqh-137">
          <mxGeometry x="313" y="300" width="227" height="30" as="geometry" />
        </mxCell>
        <mxCell id="A3IS6B0aCByR7GbL4Sqh-506" value="" style="verticalLabelPosition=bottom;shadow=0;dashed=0;align=center;html=1;verticalAlign=top;strokeWidth=1;shape=mxgraph.mockup.graphics.simpleIcon;strokeColor=#999999;fillColor=#ffffff;" vertex="1" parent="A3IS6B0aCByR7GbL4Sqh-137">
          <mxGeometry x="250" y="430" width="50" height="50" as="geometry" />
        </mxCell>
        <mxCell id="A3IS6B0aCByR7GbL4Sqh-508" value="Select Quantity &amp;amp; Add to Cart" style="rounded=0;whiteSpace=wrap;html=1;" vertex="1" parent="A3IS6B0aCByR7GbL4Sqh-137">
          <mxGeometry x="348" y="450" width="192" height="30" as="geometry" />
        </mxCell>
        <mxCell id="A3IS6B0aCByR7GbL4Sqh-509" value="Seller Summary" style="rounded=0;whiteSpace=wrap;html=1;" vertex="1" parent="A3IS6B0aCByR7GbL4Sqh-137">
          <mxGeometry x="36.5" y="520" width="517.5" height="50" as="geometry" />
        </mxCell>
        <mxCell id="A3IS6B0aCByR7GbL4Sqh-512" value="Reviews" style="html=1;shadow=0;dashed=0;shape=mxgraph.bootstrap.tabTop;strokeColor=#DFDFDF;fillColor=#ffffff;rSize=5;perimeter=none;whiteSpace=wrap;resizeWidth=1;align=center;spacing=20;fontSize=14;fontColor=#4B5259;" vertex="1" parent="A3IS6B0aCByR7GbL4Sqh-137">
          <mxGeometry x="30" y="780" width="80" height="40" as="geometry" />
        </mxCell>
        <mxCell id="A3IS6B0aCByR7GbL4Sqh-513" value="Q &amp; A" style="strokeColor=none;fillColor=none;rSize=5;perimeter=none;whiteSpace=wrap;resizeWidth=1;align=center;spacing=20;fontSize=14;fontColor=#0085FC;spacingRight=10;" vertex="1" parent="A3IS6B0aCByR7GbL4Sqh-137">
          <mxGeometry x="115" y="780" width="100" height="40" as="geometry" />
        </mxCell>
        <mxCell id="A3IS6B0aCByR7GbL4Sqh-514" value="" style="shape=triangle;direction=south;fillColor=#0085FC;strokeColor=none;perimeter=none;" vertex="1" parent="A3IS6B0aCByR7GbL4Sqh-513">
          <mxGeometry x="1" y="0.5" width="10" height="5" relative="1" as="geometry">
            <mxPoint x="-17" y="-2.5" as="offset" />
          </mxGeometry>
        </mxCell>
        <mxCell id="A3IS6B0aCByR7GbL4Sqh-515" value="Similar Products" style="strokeColor=none;fillColor=none;rSize=5;perimeter=none;whiteSpace=wrap;resizeWidth=1;align=center;spacing=20;fontSize=14;fontColor=#0085FC;" vertex="1" parent="A3IS6B0aCByR7GbL4Sqh-137">
          <mxGeometry x="225" y="780" width="75" height="40" as="geometry" />
        </mxCell>
        <mxCell id="A3IS6B0aCByR7GbL4Sqh-517" value="" style="shape=line;strokeColor=#dddddd;" vertex="1" parent="A3IS6B0aCByR7GbL4Sqh-137">
          <mxGeometry x="110" y="815" width="470" height="10" as="geometry" />
        </mxCell>
        <mxCell id="A3IS6B0aCByR7GbL4Sqh-518" value="" style="verticalLabelPosition=bottom;shadow=0;dashed=0;align=center;html=1;verticalAlign=top;strokeWidth=1;shape=mxgraph.mockup.graphics.simpleIcon;strokeColor=#999999;" vertex="1" parent="A3IS6B0aCByR7GbL4Sqh-137">
          <mxGeometry x="53.25" y="893" width="40" height="40" as="geometry" />
        </mxCell>
        <mxCell id="A3IS6B0aCByR7GbL4Sqh-519" value="Overall Rating" style="rounded=0;whiteSpace=wrap;html=1;" vertex="1" parent="A3IS6B0aCByR7GbL4Sqh-137">
          <mxGeometry x="30" y="840" width="90" height="40" as="geometry" />
        </mxCell>
        <mxCell id="A3IS6B0aCByR7GbL4Sqh-520" value="Filter by Ratings" style="rounded=0;whiteSpace=wrap;html=1;" vertex="1" parent="A3IS6B0aCByR7GbL4Sqh-137">
          <mxGeometry x="143" y="840" width="427" height="40" as="geometry" />
        </mxCell>
        <mxCell id="A3IS6B0aCByR7GbL4Sqh-522" value="Review Content" style="rounded=0;whiteSpace=wrap;html=1;" vertex="1" parent="A3IS6B0aCByR7GbL4Sqh-137">
          <mxGeometry x="143" y="893" width="350" height="40" as="geometry" />
        </mxCell>
        <mxCell id="A3IS6B0aCByR7GbL4Sqh-524" value="" style="verticalLabelPosition=bottom;shadow=0;dashed=0;align=center;html=1;verticalAlign=top;strokeWidth=1;shape=mxgraph.mockup.graphics.simpleIcon;strokeColor=#999999;" vertex="1" parent="A3IS6B0aCByR7GbL4Sqh-137">
          <mxGeometry x="53.25" y="948" width="40" height="40" as="geometry" />
        </mxCell>
        <mxCell id="A3IS6B0aCByR7GbL4Sqh-525" value="Review Content" style="rounded=0;whiteSpace=wrap;html=1;" vertex="1" parent="A3IS6B0aCByR7GbL4Sqh-137">
          <mxGeometry x="143" y="948" width="350" height="40" as="geometry" />
        </mxCell>
        <mxCell id="A3IS6B0aCByR7GbL4Sqh-526" value="" style="verticalLabelPosition=bottom;shadow=0;dashed=0;align=center;html=1;verticalAlign=top;strokeWidth=1;shape=mxgraph.mockup.graphics.simpleIcon;strokeColor=#999999;" vertex="1" parent="A3IS6B0aCByR7GbL4Sqh-137">
          <mxGeometry x="53.25" y="1003" width="40" height="40" as="geometry" />
        </mxCell>
        <mxCell id="A3IS6B0aCByR7GbL4Sqh-527" value="Review Content" style="rounded=0;whiteSpace=wrap;html=1;" vertex="1" parent="A3IS6B0aCByR7GbL4Sqh-137">
          <mxGeometry x="143" y="1003" width="350" height="40" as="geometry" />
        </mxCell>
        <mxCell id="A3IS6B0aCByR7GbL4Sqh-534" value="" style="html=1;shadow=0;dashed=0;shape=mxgraph.bootstrap.rrect;rSize=5;strokeColor=#DEE2E6;html=1;whiteSpace=wrap;fillColor=#ffffff;fontColor=#0085FC;fontSize=14;" vertex="1" parent="A3IS6B0aCByR7GbL4Sqh-137">
          <mxGeometry x="390" y="1050" width="190" height="20" as="geometry" />
        </mxCell>
        <mxCell id="A3IS6B0aCByR7GbL4Sqh-535" value="Previous" style="strokeColor=inherit;fillColor=inherit;gradientColor=inherit;fontColor=inherit;html=1;shadow=0;dashed=0;shape=mxgraph.bootstrap.leftButton;rSize=5;perimeter=none;whiteSpace=wrap;resizeHeight=1;fontSize=14;" vertex="1" parent="A3IS6B0aCByR7GbL4Sqh-534">
          <mxGeometry width="70" height="20" relative="1" as="geometry" />
        </mxCell>
        <mxCell id="A3IS6B0aCByR7GbL4Sqh-536" value="1" style="strokeColor=inherit;fillColor=inherit;gradientColor=inherit;fontColor=inherit;html=1;shadow=0;dashed=0;perimeter=none;whiteSpace=wrap;resizeHeight=1;fontSize=14;" vertex="1" parent="A3IS6B0aCByR7GbL4Sqh-534">
          <mxGeometry width="30" height="20" relative="1" as="geometry">
            <mxPoint x="70" as="offset" />
          </mxGeometry>
        </mxCell>
        <mxCell id="A3IS6B0aCByR7GbL4Sqh-537" value="2" style="strokeColor=inherit;fillColor=inherit;gradientColor=inherit;fontColor=inherit;html=1;shadow=0;dashed=0;perimeter=none;whiteSpace=wrap;resizeHeight=1;fontSize=14;" vertex="1" parent="A3IS6B0aCByR7GbL4Sqh-534">
          <mxGeometry width="30" height="20" relative="1" as="geometry">
            <mxPoint x="100" as="offset" />
          </mxGeometry>
        </mxCell>
        <mxCell id="A3IS6B0aCByR7GbL4Sqh-538" value="3" style="strokeColor=inherit;fillColor=inherit;gradientColor=inherit;fontColor=inherit;html=1;shadow=0;dashed=0;perimeter=none;whiteSpace=wrap;resizeHeight=1;fontSize=14;" vertex="1" parent="A3IS6B0aCByR7GbL4Sqh-534">
          <mxGeometry width="30" height="20" relative="1" as="geometry">
            <mxPoint x="130" as="offset" />
          </mxGeometry>
        </mxCell>
        <mxCell id="A3IS6B0aCByR7GbL4Sqh-539" value="Next" style="strokeColor=inherit;fillColor=inherit;gradientColor=inherit;fontColor=inherit;html=1;shadow=0;dashed=0;shape=mxgraph.bootstrap.rightButton;rSize=5;perimeter=none;whiteSpace=wrap;resizeHeight=1;fontSize=14;" vertex="1" parent="A3IS6B0aCByR7GbL4Sqh-534">
          <mxGeometry x="1" width="60" height="20" relative="1" as="geometry">
            <mxPoint x="-60" as="offset" />
          </mxGeometry>
        </mxCell>
        <mxCell id="A3IS6B0aCByR7GbL4Sqh-471" value="User Click &quot;Use Email&quot;" style="edgeStyle=orthogonalEdgeStyle;rounded=0;orthogonalLoop=1;jettySize=auto;html=1;" edge="1" parent="WIyWlLk6GJQsqaUBKTNV-1" source="A3IS6B0aCByR7GbL4Sqh-251" target="A3IS6B0aCByR7GbL4Sqh-455">
          <mxGeometry relative="1" as="geometry" />
        </mxCell>
        <mxCell id="A3IS6B0aCByR7GbL4Sqh-251" value="" style="strokeWidth=1;shadow=0;dashed=0;align=center;html=1;shape=mxgraph.mockup.containers.browserWindow;rSize=0;strokeColor=#666666;strokeColor2=#008cff;strokeColor3=#c4c4c4;mainText=,;recursiveResize=0;" vertex="1" parent="WIyWlLk6GJQsqaUBKTNV-1">
          <mxGeometry y="840" width="610" height="590" as="geometry" />
        </mxCell>
        <mxCell id="A3IS6B0aCByR7GbL4Sqh-252" value="Page 1" style="strokeWidth=1;shadow=0;dashed=0;align=center;html=1;shape=mxgraph.mockup.containers.anchor;fontSize=17;fontColor=#666666;align=left;whiteSpace=wrap;" vertex="1" parent="A3IS6B0aCByR7GbL4Sqh-251">
          <mxGeometry x="60" y="12" width="110" height="26" as="geometry" />
        </mxCell>
        <mxCell id="A3IS6B0aCByR7GbL4Sqh-253" value="https://www.draw.io" style="strokeWidth=1;shadow=0;dashed=0;align=center;html=1;shape=mxgraph.mockup.containers.anchor;rSize=0;fontSize=17;fontColor=#666666;align=left;" vertex="1" parent="A3IS6B0aCByR7GbL4Sqh-251">
          <mxGeometry x="130" y="60" width="250" height="26" as="geometry" />
        </mxCell>
        <mxCell id="A3IS6B0aCByR7GbL4Sqh-306" value="&lt;font style=&quot;font-size: 24px;&quot;&gt;Log In&lt;/font&gt;" style="text;html=1;strokeColor=none;fillColor=none;align=center;verticalAlign=middle;whiteSpace=wrap;rounded=0;" vertex="1" parent="A3IS6B0aCByR7GbL4Sqh-251">
          <mxGeometry x="48" y="12" width="95" height="30" as="geometry" />
        </mxCell>
        <mxCell id="A3IS6B0aCByR7GbL4Sqh-308" value="" style="verticalLabelPosition=bottom;shadow=0;dashed=0;align=center;html=1;verticalAlign=top;strokeWidth=1;shape=mxgraph.mockup.graphics.simpleIcon;strokeColor=#999999;" vertex="1" parent="A3IS6B0aCByR7GbL4Sqh-251">
          <mxGeometry x="48" y="220" width="230" height="180" as="geometry" />
        </mxCell>
        <mxCell id="A3IS6B0aCByR7GbL4Sqh-309" value="" style="rounded=0;whiteSpace=wrap;html=1;fillColor=#647687;fontColor=#ffffff;strokeColor=#314354;" vertex="1" parent="A3IS6B0aCByR7GbL4Sqh-251">
          <mxGeometry y="110" width="610" height="70" as="geometry" />
        </mxCell>
        <mxCell id="A3IS6B0aCByR7GbL4Sqh-310" value="" style="verticalLabelPosition=bottom;shadow=0;dashed=0;align=center;html=1;verticalAlign=top;strokeWidth=1;shape=mxgraph.mockup.graphics.simpleIcon;strokeColor=#999999;" vertex="1" parent="A3IS6B0aCByR7GbL4Sqh-251">
          <mxGeometry x="30" y="120" width="50" height="50" as="geometry" />
        </mxCell>
        <mxCell id="A3IS6B0aCByR7GbL4Sqh-311" value="Logo" style="text;html=1;strokeColor=none;fillColor=none;align=center;verticalAlign=middle;whiteSpace=wrap;rounded=0;" vertex="1" parent="A3IS6B0aCByR7GbL4Sqh-251">
          <mxGeometry x="25" y="127.5" width="60" height="30" as="geometry" />
        </mxCell>
        <mxCell id="A3IS6B0aCByR7GbL4Sqh-312" value="" style="rounded=0;whiteSpace=wrap;html=1;" vertex="1" parent="A3IS6B0aCByR7GbL4Sqh-251">
          <mxGeometry x="346.5" y="210" width="207" height="220" as="geometry" />
        </mxCell>
        <mxCell id="A3IS6B0aCByR7GbL4Sqh-313" value="Use Google" style="rounded=1;whiteSpace=wrap;html=1;" vertex="1" parent="A3IS6B0aCByR7GbL4Sqh-251">
          <mxGeometry x="370" y="230" width="160" height="40" as="geometry" />
        </mxCell>
        <mxCell id="A3IS6B0aCByR7GbL4Sqh-314" value="Use Email" style="rounded=1;whiteSpace=wrap;html=1;" vertex="1" parent="A3IS6B0aCByR7GbL4Sqh-251">
          <mxGeometry x="370" y="290" width="160" height="40" as="geometry" />
        </mxCell>
        <mxCell id="A3IS6B0aCByR7GbL4Sqh-315" value="Use Facebook" style="rounded=1;whiteSpace=wrap;html=1;" vertex="1" parent="A3IS6B0aCByR7GbL4Sqh-251">
          <mxGeometry x="370" y="350" width="160" height="40" as="geometry" />
        </mxCell>
        <mxCell id="A3IS6B0aCByR7GbL4Sqh-272" value="" style="rounded=0;whiteSpace=wrap;html=1;fillColor=#647687;fontColor=#ffffff;strokeColor=#314354;" vertex="1" parent="A3IS6B0aCByR7GbL4Sqh-251">
          <mxGeometry y="490" width="610" height="100" as="geometry" />
        </mxCell>
        <mxCell id="A3IS6B0aCByR7GbL4Sqh-274" value="Link 1&lt;br&gt;Link 2&lt;br&gt;Link 3&lt;br&gt;Link 4&lt;br&gt;Link 5" style="text;strokeColor=none;fillColor=none;align=left;verticalAlign=middle;spacingLeft=4;spacingRight=4;overflow=hidden;points=[[0,0.5],[1,0.5]];portConstraint=eastwest;rotatable=0;whiteSpace=wrap;html=1;" vertex="1" parent="A3IS6B0aCByR7GbL4Sqh-251">
          <mxGeometry x="110" y="500" width="80" height="80" as="geometry" />
        </mxCell>
        <mxCell id="A3IS6B0aCByR7GbL4Sqh-273" value="Link 1&lt;br&gt;Link 2&lt;br&gt;Link 3&lt;br&gt;Link 4&lt;br&gt;Link 5" style="text;strokeColor=none;fillColor=none;align=left;verticalAlign=middle;spacingLeft=4;spacingRight=4;overflow=hidden;points=[[0,0.5],[1,0.5]];portConstraint=eastwest;rotatable=0;whiteSpace=wrap;html=1;" vertex="1" parent="A3IS6B0aCByR7GbL4Sqh-251">
          <mxGeometry x="25" y="500" width="80" height="80" as="geometry" />
        </mxCell>
        <mxCell id="A3IS6B0aCByR7GbL4Sqh-275" value="Link 1&lt;br&gt;Link 2&lt;br&gt;Link 3&lt;br&gt;Link 4&lt;br&gt;Link 5" style="text;strokeColor=none;fillColor=none;align=left;verticalAlign=middle;spacingLeft=4;spacingRight=4;overflow=hidden;points=[[0,0.5],[1,0.5]];portConstraint=eastwest;rotatable=0;whiteSpace=wrap;html=1;" vertex="1" parent="A3IS6B0aCByR7GbL4Sqh-251">
          <mxGeometry x="190" y="500" width="80" height="80" as="geometry" />
        </mxCell>
        <mxCell id="A3IS6B0aCByR7GbL4Sqh-316" value="" style="strokeWidth=1;shadow=0;dashed=0;align=center;html=1;shape=mxgraph.mockup.containers.browserWindow;rSize=0;strokeColor=#666666;strokeColor2=#008cff;strokeColor3=#c4c4c4;mainText=,;recursiveResize=0;" vertex="1" parent="WIyWlLk6GJQsqaUBKTNV-1">
          <mxGeometry x="-827" y="840" width="610" height="690" as="geometry" />
        </mxCell>
        <mxCell id="A3IS6B0aCByR7GbL4Sqh-317" value="Page 1" style="strokeWidth=1;shadow=0;dashed=0;align=center;html=1;shape=mxgraph.mockup.containers.anchor;fontSize=17;fontColor=#666666;align=left;whiteSpace=wrap;" vertex="1" parent="A3IS6B0aCByR7GbL4Sqh-316">
          <mxGeometry x="60" y="12" width="110" height="26" as="geometry" />
        </mxCell>
        <mxCell id="A3IS6B0aCByR7GbL4Sqh-318" value="https://www.draw.io" style="strokeWidth=1;shadow=0;dashed=0;align=center;html=1;shape=mxgraph.mockup.containers.anchor;rSize=0;fontSize=17;fontColor=#666666;align=left;" vertex="1" parent="A3IS6B0aCByR7GbL4Sqh-316">
          <mxGeometry x="130" y="60" width="250" height="26" as="geometry" />
        </mxCell>
        <mxCell id="A3IS6B0aCByR7GbL4Sqh-319" value="" style="rounded=0;whiteSpace=wrap;html=1;fillColor=#647687;fontColor=#ffffff;strokeColor=#314354;" vertex="1" parent="A3IS6B0aCByR7GbL4Sqh-316">
          <mxGeometry y="110" width="610" height="70" as="geometry" />
        </mxCell>
        <mxCell id="A3IS6B0aCByR7GbL4Sqh-320" style="edgeStyle=orthogonalEdgeStyle;rounded=0;orthogonalLoop=1;jettySize=auto;html=1;exitX=0.5;exitY=1;exitDx=0;exitDy=0;" edge="1" parent="A3IS6B0aCByR7GbL4Sqh-316" source="A3IS6B0aCByR7GbL4Sqh-319" target="A3IS6B0aCByR7GbL4Sqh-319">
          <mxGeometry relative="1" as="geometry" />
        </mxCell>
        <mxCell id="A3IS6B0aCByR7GbL4Sqh-321" value="Search Box" style="rounded=0;whiteSpace=wrap;html=1;" vertex="1" parent="A3IS6B0aCByR7GbL4Sqh-316">
          <mxGeometry x="130" y="145" width="240" height="25" as="geometry" />
        </mxCell>
        <mxCell id="A3IS6B0aCByR7GbL4Sqh-322" value="Advance" style="rounded=0;whiteSpace=wrap;html=1;" vertex="1" parent="A3IS6B0aCByR7GbL4Sqh-316">
          <mxGeometry x="439" y="145" width="60" height="25" as="geometry" />
        </mxCell>
        <mxCell id="A3IS6B0aCByR7GbL4Sqh-323" value="Search" style="rounded=0;whiteSpace=wrap;html=1;" vertex="1" parent="A3IS6B0aCByR7GbL4Sqh-316">
          <mxGeometry x="380" y="145" width="50" height="25" as="geometry" />
        </mxCell>
        <mxCell id="A3IS6B0aCByR7GbL4Sqh-324" value="" style="verticalLabelPosition=bottom;shadow=0;dashed=0;align=center;html=1;verticalAlign=top;strokeWidth=1;shape=mxgraph.mockup.graphics.simpleIcon;strokeColor=#999999;" vertex="1" parent="A3IS6B0aCByR7GbL4Sqh-316">
          <mxGeometry x="30" y="120" width="50" height="50" as="geometry" />
        </mxCell>
        <mxCell id="A3IS6B0aCByR7GbL4Sqh-325" value="Logo" style="text;html=1;strokeColor=none;fillColor=none;align=center;verticalAlign=middle;whiteSpace=wrap;rounded=0;" vertex="1" parent="A3IS6B0aCByR7GbL4Sqh-316">
          <mxGeometry x="25" y="127.5" width="60" height="30" as="geometry" />
        </mxCell>
        <mxCell id="A3IS6B0aCByR7GbL4Sqh-326" value="Log In" style="rounded=0;whiteSpace=wrap;html=1;" vertex="1" parent="A3IS6B0aCByR7GbL4Sqh-316">
          <mxGeometry x="554" y="116" width="48" height="20" as="geometry" />
        </mxCell>
        <mxCell id="A3IS6B0aCByR7GbL4Sqh-327" value="" style="verticalLabelPosition=bottom;shadow=0;dashed=0;align=center;html=1;verticalAlign=top;strokeWidth=1;shape=mxgraph.mockup.misc.shoppingCart;" vertex="1" parent="A3IS6B0aCByR7GbL4Sqh-316">
          <mxGeometry x="510" y="147" width="20" height="20" as="geometry" />
        </mxCell>
        <mxCell id="A3IS6B0aCByR7GbL4Sqh-337" value="" style="rounded=0;whiteSpace=wrap;html=1;fillColor=#647687;fontColor=#ffffff;strokeColor=#314354;" vertex="1" parent="A3IS6B0aCByR7GbL4Sqh-316">
          <mxGeometry y="590" width="610" height="100" as="geometry" />
        </mxCell>
        <mxCell id="A3IS6B0aCByR7GbL4Sqh-338" value="Link 1&lt;br&gt;Link 2&lt;br&gt;Link 3&lt;br&gt;Link 4&lt;br&gt;Link 5" style="text;strokeColor=none;fillColor=none;align=left;verticalAlign=middle;spacingLeft=4;spacingRight=4;overflow=hidden;points=[[0,0.5],[1,0.5]];portConstraint=eastwest;rotatable=0;whiteSpace=wrap;html=1;" vertex="1" parent="A3IS6B0aCByR7GbL4Sqh-316">
          <mxGeometry x="25" y="600" width="80" height="80" as="geometry" />
        </mxCell>
        <mxCell id="A3IS6B0aCByR7GbL4Sqh-339" value="Link 1&lt;br&gt;Link 2&lt;br&gt;Link 3&lt;br&gt;Link 4&lt;br&gt;Link 5" style="text;strokeColor=none;fillColor=none;align=left;verticalAlign=middle;spacingLeft=4;spacingRight=4;overflow=hidden;points=[[0,0.5],[1,0.5]];portConstraint=eastwest;rotatable=0;whiteSpace=wrap;html=1;" vertex="1" parent="A3IS6B0aCByR7GbL4Sqh-316">
          <mxGeometry x="110" y="600" width="80" height="80" as="geometry" />
        </mxCell>
        <mxCell id="A3IS6B0aCByR7GbL4Sqh-340" value="Link 1&lt;br&gt;Link 2&lt;br&gt;Link 3&lt;br&gt;Link 4&lt;br&gt;Link 5" style="text;strokeColor=none;fillColor=none;align=left;verticalAlign=middle;spacingLeft=4;spacingRight=4;overflow=hidden;points=[[0,0.5],[1,0.5]];portConstraint=eastwest;rotatable=0;whiteSpace=wrap;html=1;" vertex="1" parent="A3IS6B0aCByR7GbL4Sqh-316">
          <mxGeometry x="190" y="600" width="80" height="80" as="geometry" />
        </mxCell>
        <mxCell id="A3IS6B0aCByR7GbL4Sqh-341" value="Chat" style="rounded=0;whiteSpace=wrap;html=1;" vertex="1" parent="A3IS6B0aCByR7GbL4Sqh-316">
          <mxGeometry x="520" y="660" width="90" height="30" as="geometry" />
        </mxCell>
        <mxCell id="A3IS6B0aCByR7GbL4Sqh-371" value="&lt;font style=&quot;font-size: 24px;&quot;&gt;Search&lt;/font&gt;" style="text;html=1;strokeColor=none;fillColor=none;align=center;verticalAlign=middle;whiteSpace=wrap;rounded=0;" vertex="1" parent="A3IS6B0aCByR7GbL4Sqh-316">
          <mxGeometry x="57.5" y="12" width="95" height="30" as="geometry" />
        </mxCell>
        <mxCell id="A3IS6B0aCByR7GbL4Sqh-455" value="" style="strokeWidth=1;shadow=0;dashed=0;align=center;html=1;shape=mxgraph.mockup.containers.browserWindow;rSize=0;strokeColor=#666666;strokeColor2=#008cff;strokeColor3=#c4c4c4;mainText=,;recursiveResize=0;" vertex="1" parent="WIyWlLk6GJQsqaUBKTNV-1">
          <mxGeometry y="1600" width="610" height="590" as="geometry" />
        </mxCell>
        <mxCell id="A3IS6B0aCByR7GbL4Sqh-456" value="Page 1" style="strokeWidth=1;shadow=0;dashed=0;align=center;html=1;shape=mxgraph.mockup.containers.anchor;fontSize=17;fontColor=#666666;align=left;whiteSpace=wrap;" vertex="1" parent="A3IS6B0aCByR7GbL4Sqh-455">
          <mxGeometry x="60" y="12" width="110" height="26" as="geometry" />
        </mxCell>
        <mxCell id="A3IS6B0aCByR7GbL4Sqh-457" value="https://www.draw.io" style="strokeWidth=1;shadow=0;dashed=0;align=center;html=1;shape=mxgraph.mockup.containers.anchor;rSize=0;fontSize=17;fontColor=#666666;align=left;" vertex="1" parent="A3IS6B0aCByR7GbL4Sqh-455">
          <mxGeometry x="130" y="60" width="250" height="26" as="geometry" />
        </mxCell>
        <mxCell id="A3IS6B0aCByR7GbL4Sqh-458" value="&lt;font style=&quot;font-size: 24px;&quot;&gt;Log In&lt;/font&gt;" style="text;html=1;strokeColor=none;fillColor=none;align=center;verticalAlign=middle;whiteSpace=wrap;rounded=0;" vertex="1" parent="A3IS6B0aCByR7GbL4Sqh-455">
          <mxGeometry x="48" y="12" width="95" height="30" as="geometry" />
        </mxCell>
        <mxCell id="A3IS6B0aCByR7GbL4Sqh-459" value="" style="verticalLabelPosition=bottom;shadow=0;dashed=0;align=center;html=1;verticalAlign=top;strokeWidth=1;shape=mxgraph.mockup.graphics.simpleIcon;strokeColor=#999999;" vertex="1" parent="A3IS6B0aCByR7GbL4Sqh-455">
          <mxGeometry x="48" y="220" width="230" height="180" as="geometry" />
        </mxCell>
        <mxCell id="A3IS6B0aCByR7GbL4Sqh-460" value="" style="rounded=0;whiteSpace=wrap;html=1;fillColor=#647687;fontColor=#ffffff;strokeColor=#314354;" vertex="1" parent="A3IS6B0aCByR7GbL4Sqh-455">
          <mxGeometry y="110" width="610" height="70" as="geometry" />
        </mxCell>
        <mxCell id="A3IS6B0aCByR7GbL4Sqh-461" value="" style="verticalLabelPosition=bottom;shadow=0;dashed=0;align=center;html=1;verticalAlign=top;strokeWidth=1;shape=mxgraph.mockup.graphics.simpleIcon;strokeColor=#999999;" vertex="1" parent="A3IS6B0aCByR7GbL4Sqh-455">
          <mxGeometry x="30" y="120" width="50" height="50" as="geometry" />
        </mxCell>
        <mxCell id="A3IS6B0aCByR7GbL4Sqh-462" value="Logo" style="text;html=1;strokeColor=none;fillColor=none;align=center;verticalAlign=middle;whiteSpace=wrap;rounded=0;" vertex="1" parent="A3IS6B0aCByR7GbL4Sqh-455">
          <mxGeometry x="25" y="127.5" width="60" height="30" as="geometry" />
        </mxCell>
        <mxCell id="A3IS6B0aCByR7GbL4Sqh-463" value="" style="rounded=0;whiteSpace=wrap;html=1;" vertex="1" parent="A3IS6B0aCByR7GbL4Sqh-455">
          <mxGeometry x="346.5" y="210" width="207" height="220" as="geometry" />
        </mxCell>
        <mxCell id="A3IS6B0aCByR7GbL4Sqh-464" value="Username" style="rounded=1;whiteSpace=wrap;html=1;" vertex="1" parent="A3IS6B0aCByR7GbL4Sqh-455">
          <mxGeometry x="370" y="230" width="160" height="20" as="geometry" />
        </mxCell>
        <mxCell id="A3IS6B0aCByR7GbL4Sqh-465" value="Password" style="rounded=1;whiteSpace=wrap;html=1;" vertex="1" parent="A3IS6B0aCByR7GbL4Sqh-455">
          <mxGeometry x="370" y="265" width="160" height="20" as="geometry" />
        </mxCell>
        <mxCell id="A3IS6B0aCByR7GbL4Sqh-466" value="Log In" style="rounded=1;whiteSpace=wrap;html=1;" vertex="1" parent="A3IS6B0aCByR7GbL4Sqh-455">
          <mxGeometry x="370" y="300" width="160" height="20" as="geometry" />
        </mxCell>
        <mxCell id="A3IS6B0aCByR7GbL4Sqh-467" value="" style="rounded=0;whiteSpace=wrap;html=1;fillColor=#647687;fontColor=#ffffff;strokeColor=#314354;" vertex="1" parent="A3IS6B0aCByR7GbL4Sqh-455">
          <mxGeometry y="490" width="610" height="100" as="geometry" />
        </mxCell>
        <mxCell id="A3IS6B0aCByR7GbL4Sqh-468" value="Link 1&lt;br&gt;Link 2&lt;br&gt;Link 3&lt;br&gt;Link 4&lt;br&gt;Link 5" style="text;strokeColor=none;fillColor=none;align=left;verticalAlign=middle;spacingLeft=4;spacingRight=4;overflow=hidden;points=[[0,0.5],[1,0.5]];portConstraint=eastwest;rotatable=0;whiteSpace=wrap;html=1;" vertex="1" parent="A3IS6B0aCByR7GbL4Sqh-455">
          <mxGeometry x="110" y="500" width="80" height="80" as="geometry" />
        </mxCell>
        <mxCell id="A3IS6B0aCByR7GbL4Sqh-469" value="Link 1&lt;br&gt;Link 2&lt;br&gt;Link 3&lt;br&gt;Link 4&lt;br&gt;Link 5" style="text;strokeColor=none;fillColor=none;align=left;verticalAlign=middle;spacingLeft=4;spacingRight=4;overflow=hidden;points=[[0,0.5],[1,0.5]];portConstraint=eastwest;rotatable=0;whiteSpace=wrap;html=1;" vertex="1" parent="A3IS6B0aCByR7GbL4Sqh-455">
          <mxGeometry x="25" y="500" width="80" height="80" as="geometry" />
        </mxCell>
        <mxCell id="A3IS6B0aCByR7GbL4Sqh-470" value="Link 1&lt;br&gt;Link 2&lt;br&gt;Link 3&lt;br&gt;Link 4&lt;br&gt;Link 5" style="text;strokeColor=none;fillColor=none;align=left;verticalAlign=middle;spacingLeft=4;spacingRight=4;overflow=hidden;points=[[0,0.5],[1,0.5]];portConstraint=eastwest;rotatable=0;whiteSpace=wrap;html=1;" vertex="1" parent="A3IS6B0aCByR7GbL4Sqh-455">
          <mxGeometry x="190" y="500" width="80" height="80" as="geometry" />
        </mxCell>
        <mxCell id="A3IS6B0aCByR7GbL4Sqh-472" value="&lt;font style=&quot;font-size: 10px;&quot;&gt;Forget Password&lt;/font&gt;" style="rounded=0;whiteSpace=wrap;html=1;" vertex="1" parent="A3IS6B0aCByR7GbL4Sqh-455">
          <mxGeometry x="370" y="330" width="60" height="30" as="geometry" />
        </mxCell>
        <mxCell id="A3IS6B0aCByR7GbL4Sqh-473" value="&lt;font style=&quot;font-size: 10px;&quot;&gt;Sign Up&lt;/font&gt;" style="rounded=0;whiteSpace=wrap;html=1;" vertex="1" parent="A3IS6B0aCByR7GbL4Sqh-455">
          <mxGeometry x="470" y="330" width="60" height="30" as="geometry" />
        </mxCell>
        <mxCell id="A3IS6B0aCByR7GbL4Sqh-474" value="Google" style="rounded=1;whiteSpace=wrap;html=1;" vertex="1" parent="A3IS6B0aCByR7GbL4Sqh-455">
          <mxGeometry x="375" y="380" width="50" height="40" as="geometry" />
        </mxCell>
        <mxCell id="A3IS6B0aCByR7GbL4Sqh-475" value="FB" style="rounded=1;whiteSpace=wrap;html=1;" vertex="1" parent="A3IS6B0aCByR7GbL4Sqh-455">
          <mxGeometry x="476" y="380" width="50" height="40" as="geometry" />
        </mxCell>
        <mxCell id="A3IS6B0aCByR7GbL4Sqh-477" value="" style="endArrow=none;html=1;rounded=0;" edge="1" parent="A3IS6B0aCByR7GbL4Sqh-455">
          <mxGeometry width="50" height="50" relative="1" as="geometry">
            <mxPoint x="450" y="420" as="sourcePoint" />
            <mxPoint x="450" y="370" as="targetPoint" />
          </mxGeometry>
        </mxCell>
        <mxCell id="A3IS6B0aCByR7GbL4Sqh-510" value="Detailed Product Description" style="rounded=0;whiteSpace=wrap;html=1;" vertex="1" parent="WIyWlLk6GJQsqaUBKTNV-1">
          <mxGeometry x="860" y="1440" width="520" height="140" as="geometry" />
        </mxCell>
        <mxCell id="A3IS6B0aCByR7GbL4Sqh-613" value="" style="rounded=0;whiteSpace=wrap;html=1;fillColor=#647687;fontColor=#ffffff;strokeColor=#314354;" vertex="1" parent="WIyWlLk6GJQsqaUBKTNV-1">
          <mxGeometry x="1530" y="1920" width="610" height="100" as="geometry" />
        </mxCell>
        <mxCell id="A3IS6B0aCByR7GbL4Sqh-614" value="Link 1&lt;br&gt;Link 2&lt;br&gt;Link 3&lt;br&gt;Link 4&lt;br&gt;Link 5" style="text;strokeColor=none;fillColor=none;align=left;verticalAlign=middle;spacingLeft=4;spacingRight=4;overflow=hidden;points=[[0,0.5],[1,0.5]];portConstraint=eastwest;rotatable=0;whiteSpace=wrap;html=1;" vertex="1" parent="WIyWlLk6GJQsqaUBKTNV-1">
          <mxGeometry x="1555" y="1930" width="80" height="80" as="geometry" />
        </mxCell>
        <mxCell id="A3IS6B0aCByR7GbL4Sqh-615" value="Link 1&lt;br&gt;Link 2&lt;br&gt;Link 3&lt;br&gt;Link 4&lt;br&gt;Link 5" style="text;strokeColor=none;fillColor=none;align=left;verticalAlign=middle;spacingLeft=4;spacingRight=4;overflow=hidden;points=[[0,0.5],[1,0.5]];portConstraint=eastwest;rotatable=0;whiteSpace=wrap;html=1;" vertex="1" parent="WIyWlLk6GJQsqaUBKTNV-1">
          <mxGeometry x="1640" y="1930" width="80" height="80" as="geometry" />
        </mxCell>
        <mxCell id="A3IS6B0aCByR7GbL4Sqh-616" value="Link 1&lt;br&gt;Link 2&lt;br&gt;Link 3&lt;br&gt;Link 4&lt;br&gt;Link 5" style="text;strokeColor=none;fillColor=none;align=left;verticalAlign=middle;spacingLeft=4;spacingRight=4;overflow=hidden;points=[[0,0.5],[1,0.5]];portConstraint=eastwest;rotatable=0;whiteSpace=wrap;html=1;" vertex="1" parent="WIyWlLk6GJQsqaUBKTNV-1">
          <mxGeometry x="1720" y="1930" width="80" height="80" as="geometry" />
        </mxCell>
        <mxCell id="A3IS6B0aCByR7GbL4Sqh-617" value="Chat" style="rounded=0;whiteSpace=wrap;html=1;" vertex="1" parent="WIyWlLk6GJQsqaUBKTNV-1">
          <mxGeometry x="2050" y="1990" width="90" height="30" as="geometry" />
        </mxCell>
        <mxCell id="A3IS6B0aCByR7GbL4Sqh-618" value="&lt;font color=&quot;#0085fc&quot;&gt;Reviews&lt;/font&gt;" style="html=1;shadow=0;dashed=0;shape=mxgraph.bootstrap.tabTop;strokeColor=none;fillColor=none;rSize=5;perimeter=none;whiteSpace=wrap;resizeWidth=1;align=center;spacing=20;fontSize=14;fontColor=#4B5259;" vertex="1" parent="WIyWlLk6GJQsqaUBKTNV-1">
          <mxGeometry x="1560" y="1620" width="80" height="40" as="geometry" />
        </mxCell>
        <mxCell id="A3IS6B0aCByR7GbL4Sqh-621" value="Similar Products" style="strokeColor=none;fillColor=none;rSize=5;perimeter=none;whiteSpace=wrap;resizeWidth=1;align=center;spacing=20;fontSize=14;fontColor=#0085FC;" vertex="1" parent="WIyWlLk6GJQsqaUBKTNV-1">
          <mxGeometry x="1755" y="1620" width="75" height="40" as="geometry" />
        </mxCell>
        <mxCell id="A3IS6B0aCByR7GbL4Sqh-622" value="" style="shape=line;strokeColor=#dddddd;" vertex="1" parent="WIyWlLk6GJQsqaUBKTNV-1">
          <mxGeometry x="1640" y="1655" width="470" height="10" as="geometry" />
        </mxCell>
        <mxCell id="A3IS6B0aCByR7GbL4Sqh-623" value="" style="verticalLabelPosition=bottom;shadow=0;dashed=0;align=center;html=1;verticalAlign=top;strokeWidth=1;shape=mxgraph.mockup.graphics.simpleIcon;strokeColor=#999999;" vertex="1" parent="WIyWlLk6GJQsqaUBKTNV-1">
          <mxGeometry x="1583.25" y="1733" width="40" height="40" as="geometry" />
        </mxCell>
        <mxCell id="A3IS6B0aCByR7GbL4Sqh-626" value="Comment Content" style="rounded=0;whiteSpace=wrap;html=1;" vertex="1" parent="WIyWlLk6GJQsqaUBKTNV-1">
          <mxGeometry x="1673" y="1733" width="350" height="40" as="geometry" />
        </mxCell>
        <mxCell id="A3IS6B0aCByR7GbL4Sqh-627" value="" style="verticalLabelPosition=bottom;shadow=0;dashed=0;align=center;html=1;verticalAlign=top;strokeWidth=1;shape=mxgraph.mockup.graphics.simpleIcon;strokeColor=#999999;" vertex="1" parent="WIyWlLk6GJQsqaUBKTNV-1">
          <mxGeometry x="1583.25" y="1788" width="40" height="40" as="geometry" />
        </mxCell>
        <mxCell id="A3IS6B0aCByR7GbL4Sqh-628" value="Comment Content" style="rounded=0;whiteSpace=wrap;html=1;" vertex="1" parent="WIyWlLk6GJQsqaUBKTNV-1">
          <mxGeometry x="1673" y="1788" width="350" height="40" as="geometry" />
        </mxCell>
        <mxCell id="A3IS6B0aCByR7GbL4Sqh-629" value="" style="verticalLabelPosition=bottom;shadow=0;dashed=0;align=center;html=1;verticalAlign=top;strokeWidth=1;shape=mxgraph.mockup.graphics.simpleIcon;strokeColor=#999999;" vertex="1" parent="WIyWlLk6GJQsqaUBKTNV-1">
          <mxGeometry x="1583.25" y="1843" width="40" height="40" as="geometry" />
        </mxCell>
        <mxCell id="A3IS6B0aCByR7GbL4Sqh-630" value="Comment Content" style="rounded=0;whiteSpace=wrap;html=1;" vertex="1" parent="WIyWlLk6GJQsqaUBKTNV-1">
          <mxGeometry x="1673" y="1843" width="350" height="40" as="geometry" />
        </mxCell>
        <mxCell id="A3IS6B0aCByR7GbL4Sqh-631" value="" style="html=1;shadow=0;dashed=0;shape=mxgraph.bootstrap.rrect;rSize=5;strokeColor=#DEE2E6;html=1;whiteSpace=wrap;fillColor=#ffffff;fontColor=#0085FC;fontSize=14;" vertex="1" parent="WIyWlLk6GJQsqaUBKTNV-1">
          <mxGeometry x="1920" y="1890" width="190" height="20" as="geometry" />
        </mxCell>
        <mxCell id="A3IS6B0aCByR7GbL4Sqh-632" value="Previous" style="strokeColor=inherit;fillColor=inherit;gradientColor=inherit;fontColor=inherit;html=1;shadow=0;dashed=0;shape=mxgraph.bootstrap.leftButton;rSize=5;perimeter=none;whiteSpace=wrap;resizeHeight=1;fontSize=14;" vertex="1" parent="A3IS6B0aCByR7GbL4Sqh-631">
          <mxGeometry width="70" height="20" relative="1" as="geometry" />
        </mxCell>
        <mxCell id="A3IS6B0aCByR7GbL4Sqh-633" value="1" style="strokeColor=inherit;fillColor=inherit;gradientColor=inherit;fontColor=inherit;html=1;shadow=0;dashed=0;perimeter=none;whiteSpace=wrap;resizeHeight=1;fontSize=14;" vertex="1" parent="A3IS6B0aCByR7GbL4Sqh-631">
          <mxGeometry width="30" height="20" relative="1" as="geometry">
            <mxPoint x="70" as="offset" />
          </mxGeometry>
        </mxCell>
        <mxCell id="A3IS6B0aCByR7GbL4Sqh-634" value="2" style="strokeColor=inherit;fillColor=inherit;gradientColor=inherit;fontColor=inherit;html=1;shadow=0;dashed=0;perimeter=none;whiteSpace=wrap;resizeHeight=1;fontSize=14;" vertex="1" parent="A3IS6B0aCByR7GbL4Sqh-631">
          <mxGeometry width="30" height="20" relative="1" as="geometry">
            <mxPoint x="100" as="offset" />
          </mxGeometry>
        </mxCell>
        <mxCell id="A3IS6B0aCByR7GbL4Sqh-635" value="3" style="strokeColor=inherit;fillColor=inherit;gradientColor=inherit;fontColor=inherit;html=1;shadow=0;dashed=0;perimeter=none;whiteSpace=wrap;resizeHeight=1;fontSize=14;" vertex="1" parent="A3IS6B0aCByR7GbL4Sqh-631">
          <mxGeometry width="30" height="20" relative="1" as="geometry">
            <mxPoint x="130" as="offset" />
          </mxGeometry>
        </mxCell>
        <mxCell id="A3IS6B0aCByR7GbL4Sqh-636" value="Next" style="strokeColor=inherit;fillColor=inherit;gradientColor=inherit;fontColor=inherit;html=1;shadow=0;dashed=0;shape=mxgraph.bootstrap.rightButton;rSize=5;perimeter=none;whiteSpace=wrap;resizeHeight=1;fontSize=14;" vertex="1" parent="A3IS6B0aCByR7GbL4Sqh-631">
          <mxGeometry x="1" width="60" height="20" relative="1" as="geometry">
            <mxPoint x="-60" as="offset" />
          </mxGeometry>
        </mxCell>
        <mxCell id="A3IS6B0aCByR7GbL4Sqh-637" value="" style="rounded=0;whiteSpace=wrap;html=1;fillColor=#647687;fontColor=#ffffff;strokeColor=#314354;" vertex="1" parent="WIyWlLk6GJQsqaUBKTNV-1">
          <mxGeometry x="2220" y="1920" width="610" height="100" as="geometry" />
        </mxCell>
        <mxCell id="A3IS6B0aCByR7GbL4Sqh-638" value="Link 1&lt;br&gt;Link 2&lt;br&gt;Link 3&lt;br&gt;Link 4&lt;br&gt;Link 5" style="text;strokeColor=none;fillColor=none;align=left;verticalAlign=middle;spacingLeft=4;spacingRight=4;overflow=hidden;points=[[0,0.5],[1,0.5]];portConstraint=eastwest;rotatable=0;whiteSpace=wrap;html=1;" vertex="1" parent="WIyWlLk6GJQsqaUBKTNV-1">
          <mxGeometry x="2245" y="1930" width="80" height="80" as="geometry" />
        </mxCell>
        <mxCell id="A3IS6B0aCByR7GbL4Sqh-639" value="Link 1&lt;br&gt;Link 2&lt;br&gt;Link 3&lt;br&gt;Link 4&lt;br&gt;Link 5" style="text;strokeColor=none;fillColor=none;align=left;verticalAlign=middle;spacingLeft=4;spacingRight=4;overflow=hidden;points=[[0,0.5],[1,0.5]];portConstraint=eastwest;rotatable=0;whiteSpace=wrap;html=1;" vertex="1" parent="WIyWlLk6GJQsqaUBKTNV-1">
          <mxGeometry x="2330" y="1930" width="80" height="80" as="geometry" />
        </mxCell>
        <mxCell id="A3IS6B0aCByR7GbL4Sqh-640" value="Link 1&lt;br&gt;Link 2&lt;br&gt;Link 3&lt;br&gt;Link 4&lt;br&gt;Link 5" style="text;strokeColor=none;fillColor=none;align=left;verticalAlign=middle;spacingLeft=4;spacingRight=4;overflow=hidden;points=[[0,0.5],[1,0.5]];portConstraint=eastwest;rotatable=0;whiteSpace=wrap;html=1;" vertex="1" parent="WIyWlLk6GJQsqaUBKTNV-1">
          <mxGeometry x="2410" y="1930" width="80" height="80" as="geometry" />
        </mxCell>
        <mxCell id="A3IS6B0aCByR7GbL4Sqh-641" value="Chat" style="rounded=0;whiteSpace=wrap;html=1;" vertex="1" parent="WIyWlLk6GJQsqaUBKTNV-1">
          <mxGeometry x="2740" y="1990" width="90" height="30" as="geometry" />
        </mxCell>
        <mxCell id="A3IS6B0aCByR7GbL4Sqh-642" value="&lt;font color=&quot;#0085fc&quot;&gt;Reviews&lt;/font&gt;" style="html=1;shadow=0;dashed=0;shape=mxgraph.bootstrap.tabTop;strokeColor=none;fillColor=none;rSize=5;perimeter=none;whiteSpace=wrap;resizeWidth=1;align=center;spacing=20;fontSize=14;fontColor=#4B5259;" vertex="1" parent="WIyWlLk6GJQsqaUBKTNV-1">
          <mxGeometry x="2250" y="1620" width="80" height="40" as="geometry" />
        </mxCell>
        <mxCell id="A3IS6B0aCByR7GbL4Sqh-643" value="Q &amp; A" style="strokeColor=none;fillColor=none;rSize=5;perimeter=none;whiteSpace=wrap;resizeWidth=1;align=center;spacing=20;fontSize=14;fontColor=#0085FC;spacingRight=10;" vertex="1" parent="WIyWlLk6GJQsqaUBKTNV-1">
          <mxGeometry x="2335" y="1620" width="100" height="40" as="geometry" />
        </mxCell>
        <mxCell id="A3IS6B0aCByR7GbL4Sqh-644" value="" style="shape=triangle;direction=south;fillColor=#0085FC;strokeColor=none;perimeter=none;" vertex="1" parent="A3IS6B0aCByR7GbL4Sqh-643">
          <mxGeometry x="1" y="0.5" width="10" height="5" relative="1" as="geometry">
            <mxPoint x="-17" y="-2.5" as="offset" />
          </mxGeometry>
        </mxCell>
        <mxCell id="A3IS6B0aCByR7GbL4Sqh-646" value="" style="shape=line;strokeColor=#dddddd;" vertex="1" parent="WIyWlLk6GJQsqaUBKTNV-1">
          <mxGeometry x="2330" y="1655" width="470" height="10" as="geometry" />
        </mxCell>
        <mxCell id="A3IS6B0aCByR7GbL4Sqh-661" value="Q &amp;amp; A" style="html=1;shadow=0;dashed=0;shape=mxgraph.bootstrap.tabTop;strokeColor=#DFDFDF;fillColor=#ffffff;rSize=5;perimeter=none;whiteSpace=wrap;resizeWidth=1;align=center;spacing=20;fontSize=14;fontColor=#4B5259;" vertex="1" parent="WIyWlLk6GJQsqaUBKTNV-1">
          <mxGeometry x="1660" y="1620" width="80" height="40" as="geometry" />
        </mxCell>
        <mxCell id="A3IS6B0aCByR7GbL4Sqh-662" value="Similar Products" style="html=1;shadow=0;dashed=0;shape=mxgraph.bootstrap.tabTop;strokeColor=#DFDFDF;fillColor=#ffffff;rSize=5;perimeter=none;whiteSpace=wrap;resizeWidth=1;align=center;spacing=20;fontSize=14;fontColor=#4B5259;" vertex="1" parent="WIyWlLk6GJQsqaUBKTNV-1">
          <mxGeometry x="2450" y="1620" width="80" height="40" as="geometry" />
        </mxCell>
        <mxCell id="A3IS6B0aCByR7GbL4Sqh-664" value="" style="verticalLabelPosition=bottom;shadow=0;dashed=0;align=center;html=1;verticalAlign=top;strokeWidth=1;shape=mxgraph.mockup.graphics.simpleIcon;strokeColor=#999999;" vertex="1" parent="WIyWlLk6GJQsqaUBKTNV-1">
          <mxGeometry x="1583.25" y="1677" width="40" height="40" as="geometry" />
        </mxCell>
        <mxCell id="A3IS6B0aCByR7GbL4Sqh-665" value="Comment Content" style="rounded=0;whiteSpace=wrap;html=1;" vertex="1" parent="WIyWlLk6GJQsqaUBKTNV-1">
          <mxGeometry x="1673" y="1677" width="350" height="40" as="geometry" />
        </mxCell>
        <mxCell id="A3IS6B0aCByR7GbL4Sqh-668" value="" style="verticalLabelPosition=bottom;shadow=0;dashed=0;align=center;html=1;verticalAlign=top;strokeWidth=1;shape=mxgraph.mockup.graphics.simpleIcon;strokeColor=#999999;fillColor=#ffffff;" vertex="1" parent="WIyWlLk6GJQsqaUBKTNV-1">
          <mxGeometry x="2250" y="1717" width="120" height="110" as="geometry" />
        </mxCell>
        <mxCell id="A3IS6B0aCByR7GbL4Sqh-675" value="" style="verticalLabelPosition=bottom;shadow=0;dashed=0;align=center;html=1;verticalAlign=top;strokeWidth=1;shape=mxgraph.mockup.graphics.simpleIcon;strokeColor=#999999;fillColor=#ffffff;" vertex="1" parent="WIyWlLk6GJQsqaUBKTNV-1">
          <mxGeometry x="2440" y="1717" width="120" height="110" as="geometry" />
        </mxCell>
        <mxCell id="A3IS6B0aCByR7GbL4Sqh-676" value="" style="verticalLabelPosition=bottom;shadow=0;dashed=0;align=center;html=1;verticalAlign=top;strokeWidth=1;shape=mxgraph.mockup.graphics.simpleIcon;strokeColor=#999999;fillColor=#ffffff;" vertex="1" parent="WIyWlLk6GJQsqaUBKTNV-1">
          <mxGeometry x="2630" y="1717" width="120" height="110" as="geometry" />
        </mxCell>
        <mxCell id="A3IS6B0aCByR7GbL4Sqh-677" value="" style="verticalLabelPosition=bottom;verticalAlign=top;html=1;shadow=0;dashed=0;strokeWidth=1;shape=mxgraph.android.quickscroll3;dy=0.5;fillColor=#33b5e5;strokeColor=#66D5F5;" vertex="1" parent="WIyWlLk6GJQsqaUBKTNV-1">
          <mxGeometry x="2782" y="1677" width="6" height="215" as="geometry" />
        </mxCell>
        <mxCell id="A3IS6B0aCByR7GbL4Sqh-679" style="edgeStyle=orthogonalEdgeStyle;rounded=0;orthogonalLoop=1;jettySize=auto;html=1;" edge="1" parent="WIyWlLk6GJQsqaUBKTNV-1">
          <mxGeometry relative="1" as="geometry">
            <mxPoint x="2490" y="1590" as="targetPoint" />
            <mxPoint x="1449.5" y="1510" as="sourcePoint" />
          </mxGeometry>
        </mxCell>
      </root>
    </mxGraphModel>
  </diagram>
</mxfile>
